<svg xmlns="http://www.w3.org/2000/svg" viewBox="0 0 96 96" fill="none">
  <rect width="96" height="96" rx="24" fill="#FFF8E8"/>
  <g transform="translate(12 16)">
    <path d="M36 11.5c-5.5-6.8-12.5 1.1-6.2 6.5L36 23l6.2-5c6.3-5.4-.7-13.3-6.2-6.5Z" fill="#FF756B"/>
    <circle cx="27" cy="29" r="10.5" fill="#FFFCF6" stroke="#18234B" stroke-width="2.5"/>
    <circle cx="45" cy="29" r="10.5" fill="#FFFCF6" stroke="#18234B" stroke-width="2.5"/>
    <circle cx="24" cy="28" r="1.4" fill="#18234B"/>
    <circle cx="42" cy="28" r="1.4" fill="#18234B"/>
    <path d="M28 33c1.4 1.5 3.2 1.5 4.6 0M46 33c1.4 1.5 3.2 1.5 4.6 0" stroke="#18234B" stroke-width="1.7" stroke-linecap="round"/>
    <path d="M17.5 31.5c-6.2 1.8-10 6.2-9.5 11.7.8 8.7 12.8 14.8 28 14.8s27.2-6.1 28-14.8c.5-5.5-3.3-9.9-9.5-11.7" stroke="#18234B" stroke-width="2.8" stroke-linecap="round"/>
    <path d="M11 40.5c6.2 6.7 14.6 10 25 10s18.8-3.3 25-10M15.5 48c5.5 7.2 12.3 10.8 20.5 10.8S51 55.2 56.5 48" stroke="#18234B" stroke-width="2.8" stroke-linecap="round"/>
    <path d="M21 38c3.7 5.4 8.7 8.1 15 8.1S47.3 43.4 51 38M25 39.5l4.5 7M47 39.5l-4.5 7" stroke="#18234B" stroke-width="2.3" stroke-linecap="round"/>
  </g>
</svg>
